{"title":"T.I. ft Keri Hilson - Got Your Back [KingPinVideos]","uid":5710286,"size":84983035,"categoryP":"other","categoryS":"other","magnet":"?xt=urn:btih:29938e84cbac504524f3182e12a905828d8aad64&amp;dn=T.I.+ft+Keri+Hilson+-+Got+Your+Back+%5BKingPinVideos%5D&amp;tr=udp%3A%2F%2Ftracker.openbittorrent.com%3A80&amp;tr=udp%3A%2F%2Fopen.demonii.com%3A1337&amp;tr=udp%3A%2F%2Ftracker.coppersurfer.tk%3A6969&amp;tr=udp%3A%2F%2Fexodus.desync.com%3A6969","seeders":0,"leechers":1,"uploader":"mrspatula","files":4,"time":1279868519,"description":"[img]http://img829.imageshack.us/img829/644/tipgyb3.png[/img]\n\n[img]http://img839.imageshack.us/img839/2576/tipgyb2.png[/img]\n\n[code]General\nComplete name                    : T.I. ft Keri Hilson - Got Your Back [KingPinVideos].mpg\nFormat                           : MPEG-PS\nFile size                        : 80.9 MiB\nDuration                         : 3mn 52s\nOverall bit rate                 : 2 920 Kbps\nWriting library                  : encoded by TMPGEnc 4.0 XPress Version. 4.7.4.299\n\nVideo\nID                               : 224 (0xE0)\nFormat                           : MPEG Video\nFormat version                   : Version 1\nFormat settings, BVOP            : Yes\nFormat settings, Matrix          : Default\nDuration                         : 3mn 52s\nBit rate mode                    : Constant\nBit rate                         : 2 613 Kbps\nNominal bit rate                 : 2 700 Kbps\nWidth                            : 384 pixels\nHeight                           : 208 pixels\nDisplay aspect ratio             : 16:9\nFrame rate                       : 29.970 fps\nResolution                       : 8 bits\nScan type                        : Progressive\nBits/(Pixel*Frame)               : 1.091\nStream size                      : 72.4 MiB (89%)\nWriting library                  : TMPGEnc XPress 4.7.4.299\n\nAudio\nID                               : 192 (0xC0)\nFormat                           : MPEG Audio\nFormat version                   : Version 1\nFormat profile                   : Layer 2\nDuration                         : 3mn 52s\nBit rate mode                    : Constant\nBit rate                         : 192 Kbps\nChannel(s)                       : 2 channels\nSampling rate                    : 48.0 KHz\nStream size                      : 5.32 MiB (7%)\n[/code]","torrent":{"xt":"urn:btih:29938e84cbac504524f3182e12a905828d8aad64","amp;dn":"T.I.+ft+Keri+Hilson+-+Got+Your+Back+%5BKingPinVideos%5D","amp;tr":["udp%3A%2F%2Ftracker.openbittorrent.com%3A80","udp%3A%2F%2Fopen.demonii.com%3A1337","udp%3A%2F%2Ftracker.coppersurfer.tk%3A6969","udp%3A%2F%2Fexodus.desync.com%3A6969"],"infoHash":"29938e84cbac504524f3182e12a905828d8aad64","infoHashBuffer":{"type":"Buffer","data":[41,147,142,132,203,172,80,69,36,243,24,46,18,169,5,130,141,138,173,100]},"announce":[],"urlList":[]}}